<?xml version="1.0" encoding="UTF-8" standalone="no"?>
<!-- Created with Inkscape (http://www.inkscape.org/) -->

<svg
   xmlns:dc="http://purl.org/dc/elements/1.1/"
   xmlns:cc="http://creativecommons.org/ns#"
   xmlns:rdf="http://www.w3.org/1999/02/22-rdf-syntax-ns#"
   xmlns:svg="http://www.w3.org/2000/svg"
   xmlns="http://www.w3.org/2000/svg"
   xmlns:sodipodi="http://sodipodi.sourceforge.net/DTD/sodipodi-0.dtd"
   xmlns:inkscape="http://www.inkscape.org/namespaces/inkscape"
   width="22.544748mm"
   height="18.330774mm"
   viewBox="0 0 22.544748 18.330774"
   version="1.1"
   id="svg3812"
   inkscape:version="0.92.2 (unknown)"
   sodipodi:docname="subs1.svg">
  <defs
     id="defs3806" />
  <sodipodi:namedview
     id="base"
     pagecolor="#ffffff"
     bordercolor="#666666"
     borderopacity="1.0"
     inkscape:pageopacity="0.0"
     inkscape:pageshadow="2"
     inkscape:zoom="1.4"
     inkscape:cx="-202.1758"
     inkscape:cy="254.05705"
     inkscape:document-units="mm"
     inkscape:current-layer="layer1"
     showgrid="false"
     inkscape:window-width="3200"
     inkscape:window-height="1752"
     inkscape:window-x="0"
     inkscape:window-y="48"
     inkscape:window-maximized="1"
     fit-margin-top="0"
     fit-margin-left="0"
     fit-margin-right="0"
     fit-margin-bottom="0" />
  <metadata
     id="metadata3809">
    <rdf:RDF>
      <cc:Work
         rdf:about="">
        <dc:format>image/svg+xml</dc:format>
        <dc:type
           rdf:resource="http://purl.org/dc/dcmitype/StillImage" />
        <dc:title></dc:title>
      </cc:Work>
    </rdf:RDF>
  </metadata>
  <g
     inkscape:label="Layer 1"
     inkscape:groupmode="layer"
     id="layer1"
     transform="translate(-102.87641,-137.39975)">
    <path
       style="fill:#000000;stroke-width:0.06270056"
       d="m 115.66123,155.71491 c -1.93872,-0.13971 -3.46501,-0.44423 -7.17921,-1.43236 -1.05132,-0.27969 -1.31064,-0.27929 -2.1518,0.003 -0.88624,0.29773 -1.34754,0.33909 -1.72797,0.15492 -0.31696,-0.15343 -0.53957,-0.45382 -0.54258,-0.73217 -10e-4,-0.0994 -0.0715,-0.29356 -0.15643,-0.4315 -0.11763,-0.19099 -0.15455,-0.33793 -0.1548,-0.61615 -2.8e-4,-0.31921 0.0225,-0.38817 0.18031,-0.54598 0.17727,-0.17727 0.30302,-0.56441 0.22457,-0.69135 -0.0219,-0.0354 -0.006,-0.10533 0.0357,-0.15537 0.0886,-0.10679 0.008,-0.25306 -0.41655,-0.75286 -0.31027,-0.36553 -0.41622,-0.60266 -0.36337,-0.81325 0.0293,-0.11688 -0.01,-0.19037 -0.18027,-0.34022 -0.24486,-0.21498 -0.37901,-0.48516 -0.34801,-0.70088 0.0267,-0.18593 0.34965,-0.40272 0.67814,-0.45525 0.1636,-0.0262 0.26905,-0.0804 0.2909,-0.14964 0.1186,-0.37589 0.27297,-0.64239 0.50418,-0.87044 0.35478,-0.34994 0.40261,-0.60452 0.18374,-0.978 -0.19673,-0.3357 -0.20261,-0.5055 -0.0324,-0.93727 0.12169,-0.30873 0.12363,-0.34171 0.0294,-0.50121 -0.0974,-0.16484 -0.0952,-0.17441 0.0622,-0.27756 0.26471,-0.17345 0.84191,-0.13752 1.27237,0.0792 l 0.35542,0.17895 0.7524,-0.37621 0.75241,-0.3762 -0.0223,-0.91558 c -0.0194,-0.79609 -0.009,-0.92061 0.0784,-0.95421 0.0899,-0.0345 0.1007,-0.27894 0.1007,-2.26968 v -2.23104 l 0.21483,-0.0898 c 0.41444,-0.17316 0.85558,-0.18205 1.37543,-0.0277 0.26337,0.0782 0.47984,0.15921 0.48103,0.18005 0.0155,0.26994 0.35863,3.08403 0.37839,3.10288 0.0148,0.0142 0.29504,-0.0291 0.62265,-0.0962 0.77778,-0.15927 2.46267,-0.2217 3.22908,-0.11964 1.01823,0.13559 1.55197,0.28621 1.69291,0.47775 0.32275,0.43858 0.23432,0.40534 1.665,0.62584 l 1.34463,0.20723 0.26648,0.30093 0.26648,0.30093 v 0.57585 0.57584 l 0.61133,0.0394 c 0.33623,0.0217 0.87868,0.0596 1.20544,0.0842 l 0.59412,0.0448 0.0479,0.28194 c 0.0264,0.15507 0.0797,0.29255 0.11865,0.30551 0.2564,0.0855 1.30419,0.87535 1.75467,1.32277 0.7866,0.78124 1.22071,1.46813 1.50815,2.38635 0.22124,0.70675 0.20897,1.7179 -0.0331,2.72589 -0.0994,0.41382 -0.26107,0.93147 -0.35934,1.15033 -0.83887,1.86828 -3.04862,3.19557 -6.01644,3.61379 -0.70742,0.0997 -2.52289,0.16735 -3.1935,0.11902 z m 2.26625,-1.40472 c 1.83903,-0.18172 3.46616,-0.7118 4.66216,-1.51882 1.20425,-0.81258 2.03385,-1.99245 2.21552,-3.15096 0.0642,-0.40949 0.10072,-0.39852 -0.75083,-0.22568 -0.32278,0.0655 -0.88927,0.15537 -1.25887,0.19967 l -0.67198,0.0805 -0.0708,0.34112 c -0.089,0.42896 -0.25518,0.9182 -0.50952,1.50048 -0.24292,0.55615 -0.29696,0.56393 -0.0796,0.0115 0.16413,-0.41716 0.36547,-1.16484 0.42663,-1.58422 l 0.0351,-0.24097 -0.32619,0.0359 c -0.1794,0.0198 -1.56765,0.0478 -3.08501,0.0623 -2.68989,0.0257 -2.70712,0.0251 -0.6897,-0.0236 1.83669,-0.0443 2.97445,-0.11091 3.84921,-0.22535 l 0.27527,-0.036 -0.0362,-0.79427 c -0.0356,-0.78036 -0.18325,-1.48814 -0.39789,-1.90721 -0.0486,-0.0948 -0.0717,-0.17242 -0.0514,-0.17242 0.0718,0 0.41704,0.84118 0.53571,1.30521 0.0714,0.2792 0.12033,0.68306 0.12033,0.99339 0,0.60732 -0.0424,0.58289 0.73937,0.42584 0.57743,-0.11599 1.16861,-0.29898 1.65396,-0.51196 0.35212,-0.15452 0.35525,-0.15824 0.3236,-0.38482 -0.0621,-0.44451 -0.22326,-0.92429 -0.47707,-1.42011 -0.37606,-0.73462 -1.28432,-1.63233 -2.17716,-2.15186 -0.71875,-0.41823 -0.78977,-0.46825 -0.8281,-0.58323 -0.0483,-0.14506 -2.56178,-0.24258 -3.16967,-0.12299 -0.76758,0.15102 -2.54355,0.21249 -4.49816,0.15571 -1.06904,-0.031 -1.61924,-0.0626 -1.22266,-0.0701 2.57151,-0.0487 4.95006,-0.27722 6.09582,-0.58574 l 0.23694,-0.0638 v -0.65594 c 0,-0.36076 -0.0103,-0.65594 -0.023,-0.65594 -0.0126,0 -0.65453,-0.0978 -1.42644,-0.21733 -1.19905,-0.18568 -1.46283,-0.2087 -1.81102,-0.15802 -0.22416,0.0326 -1.01418,0.0542 -1.75562,0.048 -0.74143,-0.006 -1.12234,-0.0192 -0.84645,-0.0288 0.93144,-0.0324 2.42464,-0.1973 2.80687,-0.30998 0.10371,-0.0306 0.1027,-0.044 -0.0158,-0.21043 -0.19667,-0.27621 -1.02229,-0.41047 -2.47753,-0.40288 -1.47999,0.008 -2.32394,0.16114 -2.58779,0.47046 -0.0941,0.11028 -0.19132,0.23459 -0.21611,0.27625 -0.0248,0.0417 -0.41556,0.15741 -0.86839,0.25723 -0.70395,0.15517 -0.85878,0.21174 -1.06786,0.39015 l -0.24455,0.20866 v 0.47727 c 0,0.2625 0.0334,0.63909 0.0743,0.83687 0.0938,0.4542 0.078,0.47399 -0.62441,0.78265 -0.73254,0.32189 -0.95104,0.47196 -1.17413,0.80641 -0.19094,0.28626 -0.28215,0.35158 -0.28215,0.20208 0,-0.0455 -0.0432,-0.22798 -0.0959,-0.40559 -0.0857,-0.28857 -0.12071,-0.33034 -0.32918,-0.39276 -0.1283,-0.0384 -0.33203,-0.0605 -0.45273,-0.049 -0.21013,0.02 -0.21863,0.0303 -0.2,0.24408 0.0107,0.12277 -0.0387,0.3707 -0.10973,0.55095 -0.1579,0.40061 -0.15966,0.44849 -0.0165,0.44849 0.16992,0 0.6207,0.48507 0.54433,0.58574 -0.0337,0.0445 -0.17421,0.25292 -0.31215,0.46319 -0.13794,0.21027 -0.30933,0.41011 -0.38086,0.44408 -0.13693,0.065 -0.43679,0.61246 -0.49589,0.90528 -0.0314,0.1554 -0.061,0.17245 -0.30008,0.17267 -0.28944,2.5e-4 -0.70594,0.20898 -0.63761,0.31954 0.0252,0.0407 0.21613,0.059 0.48634,0.0465 l 0.44491,-0.0205 0.0813,0.52406 c 0.10437,0.67258 0.23365,0.95678 0.66832,1.46916 0.19415,0.22887 0.353,0.4274 0.353,0.4412 0,0.0138 -0.12695,0.0394 -0.28212,0.0569 -0.36005,0.0406 -0.47029,0.13501 -0.47029,0.40286 0,0.24593 -0.11598,0.50016 -0.30708,0.6731 -0.0892,0.0807 -0.13182,0.19512 -0.13182,0.35358 0,0.19442 0.0254,0.24066 0.14913,0.27172 0.35739,0.0897 1.36942,-0.23953 1.93264,-0.62872 l 0.23211,-0.16039 1.71161,0.47486 c 2.88657,0.80085 4.47339,1.14583 6.07099,1.31987 0.95892,0.10446 2.64575,0.12124 3.51858,0.035 z m -6.13176,-2.66157 c -0.39358,-0.19925 -0.86396,-0.68869 -1.03629,-1.07827 -0.26,-0.58778 -0.21272,-1.36238 0.11356,-1.86048 0.0868,-0.13248 0.14863,-0.24781 0.13742,-0.25628 -0.0112,-0.008 -0.37469,-0.0635 -0.80774,-0.12236 -0.43305,-0.0588 -0.85628,-0.12377 -0.94051,-0.14431 -0.14851,-0.0362 -0.14719,-0.0309 0.0439,0.17515 0.3976,0.42881 0.49269,0.70579 0.49269,1.43514 0,0.55445 -0.0213,0.69794 -0.13498,0.90916 -0.39371,0.73157 -0.94354,0.81948 -1.57493,0.2518 -0.724,-0.65094 -0.86096,-1.95339 -0.28478,-2.70823 0.11896,-0.15585 0.20732,-0.29069 0.19634,-0.29963 -0.011,-0.009 -0.28225,-0.0802 -0.60281,-0.15831 l -0.58283,-0.14205 -0.15932,-0.31439 c -0.0876,-0.17292 -0.17382,-0.45865 -0.19155,-0.63496 l -0.0322,-0.32057 0.87979,-0.30361 0.87979,-0.30361 1.29813,0.0685 c 0.71397,0.0377 2.10846,0.0685 3.09886,0.0685 h 1.80074 l 0.13474,0.45458 c 0.0906,0.30577 0.13466,0.62489 0.13453,0.97485 -1.9e-4,0.4762 -0.0137,0.53275 -0.15914,0.66758 -0.15169,0.14058 -0.94375,0.47371 -1.12631,0.47371 -0.16408,0 -0.1703,0.13587 -0.0139,0.30292 0.3442,0.36754 0.4523,0.68464 0.45248,1.32729 1.9e-4,0.55056 -0.0146,0.62177 -0.19443,0.94051 -0.27454,0.48648 -0.60839,0.70893 -1.10772,0.73809 -0.32497,0.019 -0.44484,-0.005 -0.71352,-0.14069 z m 0.54725,-0.29276 c 0.6026,-0.18055 1.02409,-0.83233 1.02582,-1.58633 10e-4,-0.46563 -0.0834,-0.79107 -0.26391,-1.01738 -0.09,-0.11281 -0.20035,-0.14326 -0.64937,-0.1792 l -0.54095,-0.0433 -0.26832,0.2419 c -0.39104,0.35254 -0.56078,0.75836 -0.56154,1.34253 -5e-4,0.38716 0.0297,0.53434 0.16514,0.80624 0.23311,0.46778 0.55606,0.59645 1.09313,0.43554 z m -3.5422,-0.55868 c 0.26114,-0.1614 0.51102,-0.6606 0.56472,-1.12817 0.0486,-0.42343 -0.0616,-0.99768 -0.23332,-1.21605 -0.27329,-0.34743 -0.78663,-0.0838 -1.05986,0.54436 -0.23978,0.55124 -0.17148,1.47414 0.13657,1.84532 0.10064,0.12126 0.35356,0.10183 0.59189,-0.0455 z m 4.4107,-2.82679 c 0.51697,-0.16135 0.85639,-0.33528 0.90586,-0.46421 0.0497,-0.12951 0.0494,-0.83047 -4.5e-4,-1.01642 l -0.0378,-0.14108 -1.82668,-0.001 c -1.00467,-7.4e-4 -2.2358,-0.0286 -2.73584,-0.062 l -0.90915,-0.0607 -0.83658,0.29171 -0.83657,0.29171 0.0385,0.1927 c 0.0212,0.10598 0.0744,0.22855 0.11822,0.27237 0.24622,0.24622 4.70397,0.94126 5.46652,0.85232 0.13794,-0.0161 0.43221,-0.0859 0.65392,-0.15507 z m -1.04035,-0.61058 c -0.0673,-0.18099 -0.0962,-0.19651 -0.3762,-0.20236 -0.1668,-0.003 -0.62775,-0.0425 -1.02433,-0.0866 l -0.72106,-0.0802 1.0665,0.0328 c 1.00492,0.0309 1.08184,0.025 1.33238,-0.1028 0.32025,-0.16338 0.34965,-0.13239 0.0501,0.0528 -0.17118,0.10579 -0.21984,0.17985 -0.23513,0.35789 l -0.0193,0.2245 z m -6.55213,3.35954 c -0.57206,-0.43632 -0.81745,-1.35929 -0.58737,-2.20926 0.19997,-0.73877 0.56458,-0.95018 1.0709,-0.62094 0.51121,0.33243 0.82843,1.07224 0.76395,1.78164 -0.10207,1.12308 -0.6005,1.54203 -1.24748,1.04856 z m 0.38568,-0.34752 c 0.34734,-0.34733 0.48039,-1.26919 0.2804,-1.94265 -0.0531,-0.17869 -0.13143,-0.32488 -0.17415,-0.32488 -0.14526,0 -0.35768,0.19567 -0.49798,0.45872 -0.25942,0.48637 -0.16678,1.9866 0.12268,1.9866 0.0502,0 0.17127,-0.08 0.26905,-0.17779 z m 8.99821,-1.01352 c -0.0511,-0.0827 0.0238,-0.20015 0.0984,-0.15408 0.0762,0.0471 0.0757,0.21678 -6.4e-4,0.21678 -0.0324,0 -0.0764,-0.0282 -0.0977,-0.0627 z m 1.18793,-0.005 c -0.0646,-0.10455 0.0807,-0.22444 0.1672,-0.13794 0.0723,0.0724 0.0271,0.2061 -0.0698,0.2061 -0.0304,0 -0.0743,-0.0307 -0.0974,-0.0682 z m 1.26613,0.0247 c -0.0749,-0.0749 -0.0405,-0.2073 0.054,-0.2073 0.0517,0 0.0941,0.0407 0.0941,0.0904 0,0.10475 -0.0895,0.17546 -0.148,0.11695 z m 1.11987,-0.0819 c -0.0525,-0.0849 0.0183,-0.1881 0.1291,-0.1881 0.0497,0 0.0904,0.0564 0.0904,0.1254 0,0.12981 -0.15127,0.17303 -0.21945,0.0627 z m 1.26577,-0.0405 c -0.0888,-0.0887 -0.0385,-0.21031 0.0869,-0.21031 0.0876,0 0.12339,0.0341 0.10972,0.10453 -0.0224,0.1154 -0.12941,0.17298 -0.19662,0.10578 z m 1.19217,-0.12454 c -0.0987,-0.0987 -0.0401,-0.21935 0.0971,-0.19986 0.0776,0.011 0.14107,0.062 0.14107,0.11323 0,0.0996 -0.16513,0.15968 -0.23818,0.0866 z m 1.54638,-0.1794 c -0.0217,-0.0566 -0.009,-0.13297 0.0273,-0.16971 0.0955,-0.0955 0.27653,-0.008 0.25158,0.12135 -0.0278,0.14433 -0.22871,0.17917 -0.27891,0.0483 z m 0.98037,-0.31392 c 0,-0.0517 0.0423,-0.0941 0.094,-0.0941 0.0517,0 0.0941,0.0423 0.0941,0.0941 0,0.0517 -0.0423,0.094 -0.0941,0.094 -0.0517,0 -0.094,-0.0423 -0.094,-0.094 z m -12.41471,-5.70202 c 0,-0.0497 0.025,-0.10581 0.0556,-0.12471 0.069,-0.0427 0.20956,0.1171 0.15286,0.1738 -0.0746,0.0746 -0.20846,0.0431 -0.20846,-0.0491 z m 1.21833,0.0206 c -0.0473,-0.0765 0.0935,-0.19148 0.17376,-0.1419 0.0275,0.017 0.05,0.0716 0.05,0.12126 0,0.1064 -0.16157,0.1213 -0.22378,0.0206 z m 1.26709,0.0262 c -0.0749,-0.0749 -0.0405,-0.2073 0.054,-0.2073 0.0517,0 0.0941,0.0407 0.0941,0.0904 0,0.10475 -0.0895,0.17546 -0.14801,0.11695 z m 1.11986,-0.0819 c -0.0525,-0.0849 0.0183,-0.1881 0.1291,-0.1881 0.0497,0 0.0904,0.0564 0.0904,0.1254 0,0.12981 -0.15126,0.17303 -0.21945,0.0627 z m 1.22266,-0.1254 c 0,-0.0836 0.0418,-0.1254 0.12541,-0.1254 0.0836,0 0.1254,0.0418 0.1254,0.1254 0,0.0836 -0.0418,0.1254 -0.1254,0.1254 -0.0836,0 -0.12541,-0.0418 -0.12541,-0.1254 z m 1.26969,0.0186 c -0.12955,-0.048 -0.094,-0.26941 0.0433,-0.26941 0.0669,0 0.14081,0.0309 0.16417,0.0687 0.0539,0.0872 -0.10339,0.23929 -0.20749,0.20069 z"
       id="path3795"
       inkscape:connector-curvature="0" />
  </g>
</svg>
